<?xml version="1.0" encoding="UTF-8"?>
<svg xmlns="http://www.w3.org/2000/svg" xmlns:xlink="http://www.w3.org/1999/xlink" width="96pt" height="96pt" viewBox="0 0 96 96" version="1.1">
<g id="surface1">
<path style=" stroke:none;fill-rule:nonzero;fill:rgb(78.039216%,22.745098%,38.823529%);fill-opacity:1;" d="M 44.828125 40.371094 C 40.847656 47.535156 37.035156 54.472656 33.144531 61.355469 C 32.144531 63.125 31.652344 64.5625 32.449219 66.8125 C 34.652344 73.019531 31.542969 79.058594 25.699219 80.699219 C 20.1875 82.246094 14.820312 78.367188 13.726562 72.046875 C 12.757812 66.453125 16.808594 60.96875 22.570312 60.09375 C 23.050781 60.019531 23.542969 60.011719 24.355469 59.945312 C 27.175781 54.878906 30.066406 49.6875 33.113281 44.214844 C 27.605469 38.347656 24.324219 31.488281 25.050781 22.988281 C 25.5625 16.980469 27.769531 11.789062 31.800781 7.53125 C 39.523438 -0.617188 51.300781 -1.9375 60.394531 4.320312 C 69.125 10.328125 73.125 22.03125 69.714844 32.046875 C 67.144531 31.300781 64.558594 30.546875 61.710938 29.71875 C 62.78125 24.152344 61.988281 19.152344 58.484375 14.867188 C 56.167969 12.039062 53.195312 10.554688 49.8125 10.007812 C 43.035156 8.914062 36.382812 13.574219 34.410156 20.699219 C 32.167969 28.785156 35.558594 35.390625 44.828125 40.371094 Z M 44.828125 40.371094 "/>
<path style=" stroke:none;fill-rule:nonzero;fill:rgb(29.411765%,29.411765%,29.411765%);fill-opacity:1;" d="M 56.191406 31.898438 C 58.992188 37.195312 61.839844 42.570312 64.660156 47.898438 C 78.917969 43.171875 89.667969 51.628906 93.523438 60.679688 C 98.183594 71.609375 95 84.558594 85.851562 91.304688 C 76.460938 98.230469 64.585938 97.046875 56.265625 88.152344 C 58.386719 86.25 60.515625 84.339844 62.792969 82.300781 C 71.011719 88.003906 78.195312 87.734375 83.53125 80.984375 C 88.082031 75.222656 87.984375 66.636719 83.300781 61 C 77.898438 54.492188 70.660156 54.296875 61.914062 60.539062 C 58.285156 53.644531 54.59375 46.804688 51.078125 39.859375 C 49.894531 37.515625 48.585938 36.160156 45.914062 35.664062 C 41.457031 34.835938 38.574219 30.734375 38.402344 26.136719 C 38.234375 21.589844 40.734375 17.484375 44.640625 15.882812 C 48.511719 14.296875 53.054688 15.578125 55.65625 19.101562 C 57.785156 21.980469 58.460938 25.222656 57.339844 28.773438 C 57.03125 29.765625 56.628906 30.722656 56.191406 31.898438 Z M 56.191406 31.898438 "/>
<path style=" stroke:none;fill-rule:nonzero;fill:rgb(29.019608%,29.019608%,29.019608%);fill-opacity:1;" d="M 62.890625 75.199219 L 45.726562 75.199219 C 44.082031 82.445312 40.527344 88.296875 34.40625 92.019531 C 29.644531 94.910156 24.515625 95.890625 19.054688 94.945312 C 9.003906 93.210938 0.78125 83.515625 0.0585938 72.601562 C -0.761719 60.234375 7.175781 49.246094 17.75 46.777344 C 18.480469 49.617188 19.21875 52.484375 19.949219 55.316406 C 10.246094 60.621094 6.886719 67.300781 9.601562 75.65625 C 11.992188 83.007812 18.785156 87.039062 26.15625 85.480469 C 33.6875 83.886719 37.484375 77.1875 37.019531 66.429688 C 44.160156 66.429688 51.304688 66.347656 58.441406 66.46875 C 61.230469 66.515625 63.382812 66.203125 65.484375 63.570312 C 68.941406 59.238281 75.304688 59.628906 79.027344 63.722656 C 82.832031 67.902344 82.652344 74.628906 78.625 78.636719 C 74.738281 82.5 68.601562 82.292969 64.964844 78.128906 C 64.21875 77.269531 63.628906 76.25 62.890625 75.199219 Z M 62.890625 75.199219 "/>
</g>
</svg>
